<?xml version="1.0" standalone="no"?>
<!DOCTYPE svg PUBLIC "-//W3C//DTD SVG 20010904//EN"
 "http://www.w3.org/TR/2001/REC-SVG-20010904/DTD/svg10.dtd">
<svg version="1.0" xmlns="http://www.w3.org/2000/svg"
 width="118.000000pt" height="118.000000pt" viewBox="0 0 118.000000 118.000000"
 preserveAspectRatio="xMidYMid meet">
<metadata>
Created by potrace 1.10, written by Peter Selinger 2001-2011
</metadata>
<g transform="translate(0.000000,118.000000) scale(0.050000,-0.050000)"
fill="#4cdd3f" stroke="none">
<path d="M0 1180 l0 -1180 88 0 c73 0 146 47 107 69 -105 61 -118 77 -114 137
3 35 -6 89 -18 120 -32 79 -29 113 12 128 19 8 45 26 57 42 17 23 30 24 65 6
54 -29 56 2 12 175 -21 81 -25 142 -14 186 27 105 59 89 74 -37 41 -337 72
-368 119 -121 46 237 137 357 100 130 -10 -58 -18 -235 -18 -395 0 -159 -8
-324 -17 -365 l-17 -75 242 0 242 0 0 177 c0 203 18 224 175 207 90 -9 103
-31 57 -94 -24 -33 -21 -47 22 -113 34 -51 46 -89 36 -121 -10 -36 -8 -39 8
-16 18 26 21 25 22 -5 0 -32 40 -35 560 -35 l560 0 0 1180 0 1180 -1180 0
-1180 0 0 -1180z m1380 1024 c28 -18 59 -33 70 -33 182 -7 417 -240 244 -241
-18 0 -44 -12 -57 -25 -44 -44 -117 -31 -118 20 0 39 -3 40 -20 12 -23 -41
-91 -27 -149 29 -22 22 -26 32 -10 23 26 -14 26 -12 3 17 -54 66 -121 19 -200
-138 -78 -156 -225 -248 -283 -178 -28 34 -69 41 -49 9 18 -30 -29 -79 -75
-79 -50 0 -156 -99 -156 -145 0 -24 -16 -35 -48 -35 -47 0 -82 47 -61 82 6 10
2 18 -10 18 -11 0 -19 11 -16 25 3 13 -16 27 -41 31 -68 10 -45 48 62 99 106
52 118 74 41 78 -91 5 -111 72 -45 155 33 41 48 48 69 31 15 -12 43 -18 63
-13 28 7 26 10 -9 12 -26 1 -45 15 -45 33 0 24 8 26 40 9 56 -30 111 4 160
100 44 86 103 113 195 91 53 -13 53 -12 15 17 -40 31 -40 31 3 31 23 1 53 -12
67 -29 33 -40 66 -38 145 10 71 44 131 40 215 -16z m448 -402 c88 -151 31
-362 -97 -362 -38 0 -74 -9 -81 -20 -7 -12 -33 -6 -64 15 l-53 34 36 -55 c34
-52 39 -53 72 -23 44 40 112 23 129 -33 20 -60 -51 -163 -143 -210 -45 -22
-113 -73 -151 -111 -39 -39 -122 -91 -184 -116 -62 -25 -110 -50 -105 -54 19
-20 244 99 301 159 l62 66 -7 -103 c-3 -57 3 -138 15 -180 29 -105 5 -130 -97
-102 -102 27 -214 -42 -270 -165 -38 -83 -132 -117 -114 -42 4 17 8 96 8 177
1 123 7 149 38 160 20 8 -21 14 -91 13 -209 0 -341 187 -341 484 l0 165 -50
-13 c-46 -11 -48 -9 -24 21 28 33 112 44 171 21 21 -8 32 -37 32 -80 0 -40 10
-69 25 -71 14 -1 -11 -9 -55 -17 l-80 -14 73 -3 c68 -3 132 36 104 63 -15 15
46 4 101 -18 27 -10 34 -8 24 9 -9 14 6 31 38 43 66 25 96 25 80 1 -6 -11 15
-10 51 2 47 17 68 16 86 -3 18 -20 17 -23 -2 -12 -31 18 -36 -119 -5 -138 11
-7 20 -2 20 10 0 12 9 17 21 9 30 -18 79 29 79 77 0 41 0 41 29 3 27 -35 30
-35 30 -4 2 95 -260 137 -406 65 -82 -41 -81 -42 -161 70 -40 55 -63 100 -53
100 10 0 24 -9 31 -20 7 -11 22 -20 33 -20 12 0 0 17 -26 39 l-47 38 85 -11
c79 -10 90 -6 169 73 77 77 91 84 155 71 39 -8 112 -21 161 -30 50 -9 109 -21
133 -26 31 -8 46 0 53 26 10 40 147 121 193 114 16 -2 47 -35 69 -72z m-88
-1100 c-1 -108 -251 -370 -315 -330 -69 43 -46 153 40 193 76 36 195 177 195
231 0 25 7 24 40 -6 22 -20 40 -60 40 -88z m-701 -51 c55 -66 -41 -251 -129
-251 -87 0 -90 144 -5 235 48 52 99 58 134 16z m263 -41 c-34 -39 -66 -91 -71
-115 -5 -25 -13 -63 -18 -85 -5 -23 -9 -10 -11 28 -2 71 58 188 115 221 53 31
51 25 -15 -49z"/>
<path d="M1165 1525 c41 -4 109 -4 150 0 41 5 8 8 -75 8 -82 0 -116 -3 -75 -8z"/>
<path d="M848 1049 c6 -18 12 -37 12 -42 0 -5 11 -3 24 6 13 8 62 12 108 9 79
-4 130 24 97 54 -8 8 -18 3 -23 -11 -11 -30 -103 -33 -177 -5 -46 18 -52 16
-41 -11z"/>
<path d="M922 588 c-43 -55 -56 -137 -24 -157 36 -22 105 59 109 127 4 86 -31
99 -85 30z"/>
</g>
</svg>
