<?xml version="1.0" standalone="no"?>
<!DOCTYPE svg PUBLIC "-//W3C//DTD SVG 20010904//EN"
 "http://www.w3.org/TR/2001/REC-SVG-20010904/DTD/svg10.dtd">
<svg version="1.0" xmlns="http://www.w3.org/2000/svg"
 width="118.000000pt" height="118.000000pt" viewBox="0 0 118.000000 118.000000"
 preserveAspectRatio="xMidYMid meet">
<metadata>
Created by potrace 1.10, written by Peter Selinger 2001-2011
</metadata>
<g transform="translate(0.000000,118.000000) scale(0.100000,-0.100000)"
fill="#000000" stroke="none">
<path d="M0 590 l0 -590 44 0 c31 0 46 5 50 16 4 9 5 18 4 18 -53 31 -59 39
-57 69 1 18 -3 45 -10 60 -15 39 -14 57 7 64 9 4 22 13 28 21 8 12 15 12 32 3
19 -10 22 -9 22 8 0 11 -7 46 -15 80 -11 40 -13 70 -7 92 13 53 29 45 37 -18
11 -94 26 -156 36 -146 5 5 15 43 23 85 16 83 30 118 48 118 7 0 8 -16 2 -53
-5 -28 -9 -117 -9 -197 0 -80 -4 -162 -9 -182 l-8 -38 121 0 121 0 0 88 c0 82
2 89 23 99 29 13 107 5 107 -11 0 -7 -6 -21 -14 -31 -12 -17 -11 -24 11 -56
17 -26 23 -45 18 -61 -5 -18 -4 -20 4 -8 9 13 11 13 11 -2 0 -17 20 -18 280
-18 l280 0 0 590 0 590 -590 0 -590 0 0 -590z m690 512 c14 -9 30 -16 35 -17
28 -1 118 -42 137 -62 18 -19 20 -28 12 -41 -6 -9 -18 -17 -27 -17 -9 0 -22
-6 -29 -13 -6 -6 -22 -12 -35 -12 -17 0 -23 6 -23 23 -1 19 -2 20 -10 5 -12
-20 -46 -13 -75 15 -11 11 -13 16 -5 12 13 -8 13 -7 1 8 -7 9 -19 17 -25 17
-18 0 -50 -38 -74 -86 -24 -47 -84 -104 -111 -104 -10 0 -24 7 -31 15 -14 17
-35 21 -25 5 9 -15 -14 -40 -37 -40 -25 0 -78 -49 -78 -72 0 -12 -8 -18 -24
-18 -24 0 -41 23 -30 41 3 5 0 9 -5 9 -6 0 -10 6 -9 12 2 7 -7 14 -20 16 -34
5 -22 24 31 50 53 25 59 36 21 39 -46 2 -56 35 -23 77 16 21 24 24 35 16 7 -7
21 -10 31 -7 14 4 13 5 -4 6 -14 1 -23 7 -23 16 0 13 4 14 20 5 28 -15 55 2
80 50 22 43 51 57 98 45 26 -6 26 -6 7 9 -20 15 -20 15 1 16 12 0 27 -7 34
-15 17 -20 33 -19 72 5 36 22 66 20 108 -8z m27 -9 c-4 -3 -7 0 -7 7 0 7 3 10
7 7 3 -4 3 -10 0 -14z m197 -192 c24 -42 25 -120 2 -156 -12 -19 -25 -25 -51
-25 -18 0 -37 -4 -40 -10 -4 -6 -16 -3 -32 7 l-26 18 18 -28 c16 -26 19 -27
36 -11 22 19 55 11 64 -17 10 -30 -25 -81 -71 -105 -23 -11 -57 -36 -76 -56
-19 -19 -61 -45 -92 -58 -31 -12 -55 -24 -53 -27 10 -10 123 50 151 80 l31 33
-3 -52 c-2 -28 1 -68 7 -89 14 -53 3 -65 -48 -52 -35 10 -44 8 -78 -15 -23
-15 -46 -42 -58 -67 -14 -32 -23 -41 -39 -39 -13 2 -20 9 -17 18 1 8 3 48 4
88 0 62 3 75 19 81 10 3 -11 6 -46 6 -76 0 -89 9 -137 98 -30 56 -33 70 -33
144 l0 82 -26 -6 c-22 -6 -24 -5 -11 10 13 17 56 22 85 11 10 -4 16 -18 16
-40 0 -20 5 -35 13 -35 6 -1 -6 -5 -28 -9 l-40 -7 36 -2 c34 -1 66 18 53 32
-8 7 23 2 50 -9 14 -5 17 -4 12 4 -4 8 3 16 19 22 33 13 48 13 40 0 -3 -5 7
-5 25 2 24 8 34 7 43 -2 9 -10 9 -11 0 -6 -16 9 -18 -59 -3 -69 6 -3 10 -1 10
5 0 6 5 8 10 5 16 -10 40 14 40 38 0 20 0 20 15 1 13 -17 14 -17 15 -2 0 10
-12 26 -27 35 -33 22 -131 20 -176 -2 -17 -8 -33 -15 -38 -15 -4 0 -23 23 -43
50 -20 28 -32 50 -27 50 6 0 13 -5 16 -10 3 -5 11 -10 17 -10 5 0 0 9 -13 19
l-24 20 42 -6 c40 -5 46 -3 85 37 39 38 45 41 78 35 19 -4 55 -11 80 -15 25
-4 55 -10 67 -13 15 -4 22 0 26 13 5 20 74 61 96 57 8 -1 24 -17 35 -36z
m-509 -121 c8 -13 -5 -13 -25 0 -13 8 -13 10 2 10 9 0 20 -4 23 -10z m465
-429 c0 -26 -87 -143 -122 -165 -28 -17 -53 5 -53 45 0 29 5 36 37 51 39 18
98 89 98 116 0 12 4 12 20 -3 11 -10 20 -30 20 -44z m-456 -13 c-16 -18 -30
-35 -31 -37 -2 -2 -3 0 -3 6 0 11 48 63 58 63 3 0 -7 -15 -24 -32z m106 -13
c27 -32 -21 -125 -65 -125 -44 0 -45 72 -3 118 25 25 50 28 68 7z m131 -20
c-17 -20 -33 -45 -35 -58 -3 -12 -7 -31 -9 -42 -3 -11 -5 -5 -6 14 -1 36 29
94 57 111 27 15 26 12 -7 -25z m-274 -32 c-4 -3 -7 0 -7 7 0 7 3 10 7 7 3 -4
3 -10 0 -14z m248 -103 c3 -5 4 -10 1 -10 -3 0 -8 5 -11 10 -3 6 -4 10 -1 10
3 0 8 -4 11 -10z"/>
<path d="M583 763 c20 -2 54 -2 75 0 20 2 3 4 -38 4 -41 0 -58 -2 -37 -4z"/>
<path d="M519 651 c13 -12 28 -21 34 -21 12 0 11 0 -28 24 l-30 17 24 -20z"/>
<path d="M703 649 c-6 -6 -26 -15 -45 -19 -29 -7 -30 -8 -7 -9 15 -1 37 8 50
19 13 10 22 19 19 20 -4 0 -11 -5 -17 -11z"/>
<path d="M583 623 c9 -2 23 -2 30 0 6 3 -1 5 -18 5 -16 0 -22 -2 -12 -5z"/>
<path d="M830 620 c0 -7 3 -10 7 -7 3 4 3 10 0 14 -4 3 -7 0 -7 -7z"/>
<path d="M424 524 c3 -8 6 -18 6 -20 0 -3 5 -2 12 2 7 4 31 7 54 5 40 -2 65
12 49 27 -4 4 -10 1 -12 -5 -6 -16 -52 -17 -88 -3 -23 9 -26 8 -21 -6z"/>
<path d="M457 489 c7 -7 15 -10 18 -7 3 3 -2 9 -12 12 -14 6 -15 5 -6 -5z"/>
<path d="M500 490 c-9 -6 -10 -10 -3 -10 6 0 15 5 18 10 8 12 4 12 -15 0z"/>
<path d="M461 294 c-22 -27 -28 -69 -12 -78 18 -11 53 29 54 63 2 43 -15 49
-42 15z"/>
<path d="M101 213 c-1 -18 4 -23 22 -22 15 1 17 3 5 6 -9 2 -19 12 -21 21 -3
12 -5 10 -6 -5z"/>
<path d="M50 200 c0 -7 3 -10 7 -7 3 4 3 10 0 14 -4 3 -7 0 -7 -7z"/>
<path d="M153 183 c4 -3 10 -3 14 0 3 4 0 7 -7 7 -7 0 -10 -3 -7 -7z"/>
<path d="M193 183 c4 -3 10 -3 14 0 3 4 0 7 -7 7 -7 0 -10 -3 -7 -7z"/>
<path d="M67 153 c5 -23 43 -33 43 -12 0 6 -6 9 -12 6 -7 -2 -18 3 -25 12 -10
14 -11 13 -6 -6z"/>
</g>
</svg>
