<?xml version="1.0" standalone="no"?>
<!DOCTYPE svg PUBLIC "-//W3C//DTD SVG 20010904//EN"
 "http://www.w3.org/TR/2001/REC-SVG-20010904/DTD/svg10.dtd">
<svg version="1.0" xmlns="http://www.w3.org/2000/svg"
 width="118.000000pt" height="118.000000pt" viewBox="0 0 118.000000 118.000000"
 preserveAspectRatio="xMidYMid meet">
<metadata>
Created by potrace 1.10, written by Peter Selinger 2001-2011
</metadata>
<g transform="translate(0.000000,118.000000) scale(0.100000,-0.100000)"
fill="#4cdd3f" stroke="none">
<path d="M478 1144 c-3 -3 -27 -13 -54 -22 -37 -14 -52 -26 -70 -57 -13 -25
-30 -41 -44 -43 -18 -3 -21 0 -17 12 10 26 -24 4 -66 -44 -40 -43 -47 -79 -21
-105 9 -9 15 -17 13 -18 -2 -1 -13 -7 -23 -13 -34 -18 -42 -41 -23 -62 9 -10
17 -27 17 -38 0 -10 5 -26 10 -34 8 -12 10 -12 10 5 1 18 2 18 10 -2 7 -18 17
-23 48 -23 36 0 62 -14 62 -32 0 -4 -5 -8 -11 -8 -5 0 -8 4 -5 9 4 5 -3 7 -14
4 -23 -6 -17 -23 8 -23 12 0 17 -9 18 -33 2 -62 91 -207 128 -207 18 0 66 -24
66 -32 0 -5 5 -8 10 -8 6 0 10 8 10 18 0 13 22 27 83 52 53 21 94 46 117 69
l35 36 0 -78 c1 -51 5 -81 13 -86 9 -6 8 -12 -6 -24 -15 -14 -24 -15 -55 -5
-33 10 -40 9 -75 -14 -22 -15 -45 -42 -56 -67 -15 -31 -25 -41 -43 -41 -19 0
-23 4 -19 22 13 62 16 109 7 104 -5 -4 -12 -2 -16 4 -3 5 -11 10 -16 10 -6 0
-7 -5 -3 -12 4 -7 3 -8 -4 -4 -6 4 -22 2 -34 -4 -22 -11 -22 -10 -4 4 11 9 24
16 29 16 4 0 5 5 2 10 -9 15 -53 12 -79 -5 -21 -14 -158 -57 -163 -51 -2 1 2
18 7 37 25 86 4 152 -36 118 -22 -18 -56 -99 -50 -115 3 -8 1 -16 -4 -19 -6
-4 -10 16 -10 48 0 39 -6 62 -19 78 -19 23 -19 23 -40 5 -35 -32 -37 -98 -4
-182 3 -8 -1 -14 -9 -14 -7 0 -31 -14 -52 -31 -33 -28 -37 -36 -32 -63 4 -17
10 -53 15 -80 5 -34 15 -54 29 -64 12 -8 22 -21 22 -28 0 -19 16 -18 24 2 8
22 8 24 -7 24 -19 0 -43 30 -51 63 -7 28 -7 28 41 25 39 -2 49 -7 51 -23 5
-23 31 -55 45 -55 6 0 1 10 -11 23 -12 13 -22 31 -22 40 0 20 -36 41 -53 31
-6 -4 -9 -4 -5 1 4 4 1 14 -7 22 -25 25 -17 34 23 27 20 -4 47 -11 60 -15 21
-8 62 3 62 17 0 3 -5 2 -11 -1 -6 -4 -30 -4 -55 0 -32 4 -44 11 -44 23 0 14
-2 14 -9 3 -5 -8 -18 -12 -30 -8 -16 4 -21 1 -21 -15 0 -10 5 -28 10 -39 9
-15 7 -19 -5 -19 -15 0 -35 37 -35 66 0 8 8 18 17 21 10 4 23 13 29 21 9 12
15 12 33 2 13 -6 24 -10 25 -8 2 2 -5 38 -16 81 -19 78 -15 136 8 144 10 3 40
-155 38 -199 0 -10 3 -18 7 -18 10 0 19 26 34 109 15 74 39 126 54 117 4 -3 2
-38 -6 -78 -8 -44 -12 -122 -11 -198 2 -69 -1 -142 -6 -162 -6 -27 -5 -38 3
-38 6 0 11 7 11 16 0 10 5 14 16 10 9 -4 13 -2 8 5 -3 6 -8 71 -9 145 l-3 134
55 16 c30 9 56 14 58 12 3 -2 -1 -21 -7 -41 -9 -28 -8 -47 2 -79 7 -24 16 -54
20 -68 l8 -25 7 28 c5 19 12 26 22 23 8 -3 16 -6 18 -6 2 0 1 -22 -2 -49 -6
-55 3 -121 17 -121 6 0 10 39 10 88 0 82 2 89 23 99 28 12 107 5 107 -11 0 -6
-7 -20 -15 -30 -13 -17 -12 -22 7 -49 14 -19 21 -44 20 -66 -1 -29 1 -32 8
-16 7 17 9 18 9 3 1 -10 6 -18 11 -18 14 0 13 33 -1 47 -9 9 -9 20 1 42 7 17
16 31 21 31 5 0 9 7 9 15 0 8 7 15 15 15 8 0 14 -3 13 -7 -3 -16 15 -43 28
-43 8 0 15 -10 15 -22 1 -18 3 -17 8 6 4 20 25 44 66 76 33 25 76 70 95 98 19
28 39 51 43 52 5 0 5 -4 2 -10 -3 -5 0 -7 9 -4 21 8 112 -43 143 -80 24 -28
25 -35 21 -123 -2 -51 0 -87 4 -80 12 19 9 170 -5 194 -17 31 -69 68 -154 110
-49 24 -73 41 -73 53 0 24 -37 54 -67 55 -21 0 -28 7 -34 29 -11 38 0 86 20
93 37 13 80 54 86 84 4 17 20 59 36 94 16 36 29 81 29 100 0 38 -28 103 -54
124 -9 8 -13 24 -11 42 5 37 -41 86 -90 95 -20 3 -46 15 -60 26 -20 15 -25 16
-25 5 0 -21 23 -37 64 -44 21 -3 33 -10 29 -16 -3 -6 -1 -7 5 -3 17 11 64 -41
60 -66 -2 -11 -14 -28 -27 -36 -23 -16 -24 -16 -17 8 7 25 7 25 -8 -1 -8 -14
-27 -34 -41 -43 -14 -9 -23 -21 -20 -26 10 -16 -7 -11 -27 7 -11 9 -18 11 -18
5 0 -21 -30 -13 -40 11 l-9 22 0 -22 c-1 -20 -4 -21 -30 -12 -42 15 -49 56
-15 87 21 18 29 20 40 11 11 -9 14 -9 14 0 0 20 -29 24 -55 7 -14 -9 -36 -38
-49 -64 -48 -93 -107 -132 -147 -96 -14 13 -22 15 -29 6 -6 -7 -7 -10 -4 -7 4
2 13 -2 21 -10 8 -8 29 -15 48 -15 26 0 41 9 70 41 30 34 42 40 63 36 15 -3
38 -8 52 -11 14 -3 42 -8 62 -11 l38 -6 -21 -28 c-19 -26 -20 -30 -6 -64 9
-19 27 -43 42 -53 19 -13 25 -24 22 -40 l-4 -23 29 24 c35 29 41 30 63 9 34
-34 -18 -118 -81 -130 -18 -3 -37 -15 -43 -27 -41 -77 -265 -142 -319 -94 -33
30 -83 133 -89 186 l-6 49 46 -5 c37 -4 48 -2 63 15 18 21 44 19 44 -3 0 -20
47 -53 91 -65 64 -18 149 15 149 56 0 8 -11 26 -25 39 -21 22 -33 25 -97 25
-50 0 -81 -5 -96 -16 -15 -10 -27 -12 -39 -5 -13 7 -20 4 -28 -12 -11 -24 -43
-32 -82 -22 -25 6 -25 7 -5 65 4 12 2 13 -9 3 -7 -7 -22 -13 -32 -13 -16 0
-17 3 -7 15 21 25 104 16 99 -11 -4 -24 2 -54 11 -54 6 0 15 11 20 25 7 20 6
32 -6 51 -22 33 -53 49 -67 35 -8 -8 -5 -11 10 -11 12 0 25 -5 28 -10 4 -7 -3
-8 -22 -4 -15 4 -29 11 -31 16 -2 4 -9 8 -15 8 -5 0 -7 -3 -4 -7 4 -3 -3 -11
-16 -17 -27 -14 -36 -55 -11 -52 9 0 19 -5 22 -13 3 -10 0 -11 -9 -5 -8 4 -26
7 -40 6 -29 -4 -54 20 -45 43 7 18 -5 20 -22 3 -9 -9 -12 -9 -12 0 0 7 7 15
15 18 24 9 17 24 -10 24 -44 0 -29 29 25 52 53 22 65 51 25 55 -16 1 -16 1 -2
-3 9 -3 17 -9 17 -13 0 -16 -13 -19 -36 -9 -17 8 -24 19 -24 38 0 30 44 78 55
61 3 -6 16 -10 28 -10 20 1 20 2 2 6 -30 7 -41 21 -27 35 9 9 12 9 12 0 0 -13
28 -16 55 -6 9 4 25 24 36 45 21 42 50 55 97 45 23 -5 24 -5 8 5 -14 9 -15 13
-5 19 8 5 23 1 40 -11 34 -24 42 -24 64 1 10 11 28 20 41 20 29 0 75 -20 91
-40 10 -13 11 -11 6 8 -3 12 0 29 7 37 8 10 9 15 2 15 -6 0 -13 -4 -17 -9 -3
-6 -16 -6 -34 0 -31 11 -105 -3 -116 -22 -4 -6 -19 -2 -39 11 -18 11 -35 17
-38 14z m448 -260 c19 -50 14 -115 -12 -165 -14 -29 -17 -30 -33 -15 -21 19
-42 21 -58 5 -17 -17 -93 62 -93 97 0 34 26 65 48 57 13 -4 14 -3 4 5 -8 5
-13 13 -11 18 4 15 53 49 65 46 6 -1 17 5 24 13 12 14 15 14 31 -1 10 -9 26
-36 35 -60z m-326 51 c0 -8 -4 -15 -10 -15 -5 0 -7 7 -4 15 4 8 8 15 10 15 2
0 4 -7 4 -15z m53 -214 c9 0 17 -9 17 -18 0 -14 -2 -15 -9 -4 -5 7 -13 11 -19
7 -6 -3 -13 0 -16 6 -3 7 -4 -5 -3 -26 1 -23 8 -41 16 -44 8 -3 11 0 7 6 -3 5
1 13 10 16 10 4 13 2 8 -7 -5 -7 -1 -6 10 2 10 8 15 23 13 33 -3 10 -1 18 4
18 5 0 12 -12 15 -27 9 -36 -16 -53 -79 -53 -48 0 -116 24 -118 41 -1 5 -2 15
-3 22 -4 26 48 36 147 28z m217 -369 c0 -23 -66 -117 -108 -156 -26 -22 -67
-15 -75 13 -7 27 14 65 38 69 42 8 112 98 100 130 -4 12 1 10 19 -7 15 -14 26
-35 26 -49z m-427 8 c-38 -23 -63 -67 -63 -112 -1 -28 -2 -30 -11 -15 -23 40
43 147 90 147 9 0 3 -8 -16 -20z m225 -40 c-58 -48 -74 -134 -29 -160 9 -5 11
-10 5 -10 -6 0 -14 -13 -17 -30 -4 -16 -12 -30 -18 -30 -6 0 -8 7 -5 17 4 9 1
20 -6 25 -10 6 -7 10 9 14 20 5 20 8 8 21 -36 35 -8 129 48 163 46 28 47 25 5
-10z m-149 6 c16 -19 4 -79 -21 -106 -13 -14 -29 -20 -46 -18 -25 3 -27 7 -26
46 1 67 61 117 93 78z m399 2 c18 -18 -52 -108 -131 -166 -63 -47 -87 -56 -87
-32 0 5 9 11 19 15 29 9 146 129 161 164 14 34 20 37 38 19z m-158 -8 c0 -5
-8 -10 -18 -10 -25 0 -68 -49 -74 -82 -5 -28 10 -49 42 -61 8 -3 0 -6 -17 -6
-57 -2 -80 68 -40 119 31 40 107 68 107 40z m-343 -25 c-7 -13 -14 -20 -15
-14 -2 5 2 16 8 24 18 21 20 18 7 -10z m-6 -87 c11 -21 11 -22 -4 -9 -10 7
-17 17 -17 22 0 15 9 10 21 -13z m-18 -33 c-7 -21 -13 -19 -13 6 0 11 4 18 10
14 5 -3 7 -12 3 -20z"/>
<path d="M550 709 c0 -5 5 -7 10 -4 6 3 10 8 10 11 0 2 -4 4 -10 4 -5 0 -10
-5 -10 -11z"/>
<path d="M560 650 c8 -5 22 -9 30 -9 10 0 8 3 -5 9 -27 12 -43 12 -25 0z"/>
<path d="M461 294 c-20 -26 -28 -64 -15 -77 21 -21 73 55 60 88 -8 22 -22 19
-45 -11z"/>
<path d="M735 1043 c18 -39 20 -94 3 -113 -11 -12 -10 -12 5 -1 25 19 23 92
-3 122 l-21 24 16 -32z"/>
<path d="M615 1040 c3 -5 11 -10 16 -10 6 0 7 5 4 10 -3 6 -11 10 -16 10 -6 0
-7 -4 -4 -10z"/>
<path d="M671 954 c0 -11 3 -14 6 -6 3 7 2 16 -1 19 -3 4 -6 -2 -5 -13z"/>
<path d="M395 820 c-3 -6 -1 -10 6 -10 7 0 21 -7 31 -17 10 -9 18 -11 18 -6 0
16 -48 45 -55 33z"/>
<path d="M545 765 c23 -8 175 -11 163 -4 -7 5 -49 8 -93 8 -44 0 -75 -2 -70
-4z"/>
<path d="M820 658 c-11 -18 -20 -40 -20 -48 1 -8 7 -1 15 15 l15 30 -4 -27
c-1 -15 1 -25 6 -22 5 3 8 16 7 27 -2 37 0 45 19 50 16 4 16 5 -1 6 -10 0 -26
-13 -37 -31z"/>
<path d="M421 641 c-12 -8 -12 -13 3 -35 19 -30 32 -35 16 -7 -5 11 -7 27 -4
35 7 18 5 19 -15 7z"/>
<path d="M410 545 c0 -13 34 -56 51 -66 33 -17 102 32 84 60 -5 9 -135 15
-135 6z m110 -15 c19 -13 -46 -13 -75 0 -16 7 -11 9 20 9 22 0 47 -4 55 -9z
m-6 -31 c-6 -10 -35 -12 -58 -3 -27 10 -9 20 28 16 20 -2 33 -8 30 -13z"/>
<path d="M568 293 c7 -3 16 -2 19 1 4 3 -2 6 -13 5 -11 0 -14 -3 -6 -6z"/>
<path d="M722 25 c0 -17 2 -22 5 -12 2 9 2 23 0 30 -3 6 -5 -1 -5 -18z"/>
</g>
</svg>
